<?xml version="1.0" encoding="UTF-8"?>
<svg data-bbox="5.3 3.7 83.9 83.9" xmlns="http://www.w3.org/2000/svg" height="91.2" width="91.2" data-type="color">
    <g>
        <path fill="#00b3e1" d="M67.5 63.6h19.4c1.3 0 2.3 1 2.3 2.3v19.4c0 1.3-1 2.3-2.3 2.3H66.6c-.8 0-1.4-.6-1.4-1.4V65.9c0-1.3 1-2.3 2.3-2.3" data-color="1"/>
        <path fill="#002b53" d="M89.2 15.7v6H24.8c-.8 0-1.5.7-1.5 1.5v64.4h-6c-6.6 0-12-5.4-12-12V5.2c0-.8.7-1.5 1.5-1.5h70.3c6.6 0 12 5.4 12 12z" data-color="2"/>
        <path fill="#0079c2" d="M89.2 42.6v9H54.8c-.8 0-1.5.7-1.5 1.5v34.4h-9c-5 0-9-4-9-9V35.1c0-.8.7-1.5 1.5-1.5h43.4c5 0 9 4 9 9" data-color="3"/>
    </g>
</svg>
